<svg width="60" height="60" viewBox="0 0 60 60" fill="none" xmlns="http://www.w3.org/2000/svg">
<path d="M18.75 6.5C19.6783 6.5 20.5682 6.86901 21.2246 7.52539C21.881 8.18177 22.25 9.07174 22.25 10V50C22.25 50.9283 21.881 51.8182 21.2246 52.4746C20.5682 53.131 19.6783 53.5 18.75 53.5H11.25C10.3217 53.5 9.43177 53.131 8.77539 52.4746C8.11901 51.8182 7.75 50.9283 7.75 50V10L7.75391 9.82617C7.79688 8.9612 8.1601 8.14068 8.77539 7.52539C9.43177 6.86901 10.3217 6.5 11.25 6.5H18.75ZM14.75 46.5H15.25V13.5H14.75V46.5Z" fill="#00D8BD" stroke="#007666" stroke-width="2"/>
<path d="M29.75 46.4998H30.25V30.9705L31.5674 31.4119C32.976 31.8833 34.4521 32.1235 35.9375 32.1228H37.25V49.9998C37.25 50.928 36.8809 51.818 36.2246 52.4744C35.5682 53.1307 34.6783 53.4998 33.75 53.4998H26.25C25.3217 53.4998 24.4318 53.1307 23.7754 52.4744C23.1191 51.818 22.75 50.928 22.75 49.9998V23.364L24.5791 26.0789C25.7765 27.8557 27.3728 29.3282 29.2402 30.3787L29.75 30.6648V46.4998Z" fill="#00D8BD" stroke="#007666" stroke-width="2"/>
<mask id="path-3-outside-1_2548_59813" maskUnits="userSpaceOnUse" x="23" y="5.5" width="32" height="49" fill="black">
<rect fill="white" x="23" y="5.5" width="32" height="49"/>
<path fill-rule="evenodd" clip-rule="evenodd" d="M35.9364 29.375C36.0414 29.375 36.1455 29.3733 36.2489 29.37C38.1785 29.3183 40.0595 28.754 41.6989 27.735L48.2314 34.2675L51.7664 30.7325L45.2339 24.2C46.51 22.1412 47.0667 19.7171 46.8165 17.3078C46.5663 14.8986 45.5235 12.6405 43.8515 10.8879C42.1796 9.13522 39.9731 7.98717 37.5783 7.62379C35.1835 7.26042 32.7358 7.70228 30.6192 8.88006C28.5026 10.0578 26.8369 11.9049 25.8833 14.1315C24.9297 16.3581 24.7422 18.8383 25.3502 21.183C25.9582 23.5276 27.3273 25.6041 29.2428 27.0868C31.1582 28.5694 33.5117 29.3742 35.9339 29.375M35.9339 24.375C35.1226 24.3754 34.3199 24.2092 33.5755 23.8866C32.8311 23.5641 32.1609 23.0922 31.6064 22.5C30.672 21.5041 30.1096 20.2166 30.0137 18.8545C29.9178 17.4923 30.2943 16.1387 31.0799 15.0217C31.8655 13.9048 33.0121 13.0927 34.3265 12.7225C35.6409 12.3522 37.0428 12.4463 38.2959 12.9889C39.549 13.5315 40.5768 14.4895 41.206 15.7015C41.8353 16.9134 42.0276 18.3052 41.7505 19.6423C41.4734 20.9795 40.7439 22.1802 39.6848 23.0423C38.6258 23.9044 37.3019 24.375 35.9364 24.375M41.2489 37.5C40.5858 37.5 39.9499 37.7634 39.4811 38.2322C39.0123 38.7011 38.7489 39.337 38.7489 40V50C38.7489 50.6631 39.0123 51.2989 39.4811 51.7678C39.9499 52.2366 40.5858 52.5 41.2489 52.5H48.7489C49.4119 52.5 50.0478 52.2366 50.5166 51.7678C50.9855 51.2989 51.2489 50.6631 51.2489 50V40C51.2489 39.337 50.9855 38.7011 50.5166 38.2322C50.0478 37.7634 49.4119 37.5 48.7489 37.5H41.2489ZM43.7489 47.5V42.5H46.2489V47.5H43.7489Z"/>
</mask>
<path fill-rule="evenodd" clip-rule="evenodd" d="M35.9364 29.375C36.0414 29.375 36.1455 29.3733 36.2489 29.37C38.1785 29.3183 40.0595 28.754 41.6989 27.735L48.2314 34.2675L51.7664 30.7325L45.2339 24.2C46.51 22.1412 47.0667 19.7171 46.8165 17.3078C46.5663 14.8986 45.5235 12.6405 43.8515 10.8879C42.1796 9.13522 39.9731 7.98717 37.5783 7.62379C35.1835 7.26042 32.7358 7.70228 30.6192 8.88006C28.5026 10.0578 26.8369 11.9049 25.8833 14.1315C24.9297 16.3581 24.7422 18.8383 25.3502 21.183C25.9582 23.5276 27.3273 25.6041 29.2428 27.0868C31.1582 28.5694 33.5117 29.3742 35.9339 29.375M35.9339 24.375C35.1226 24.3754 34.3199 24.2092 33.5755 23.8866C32.8311 23.5641 32.1609 23.0922 31.6064 22.5C30.672 21.5041 30.1096 20.2166 30.0137 18.8545C29.9178 17.4923 30.2943 16.1387 31.0799 15.0217C31.8655 13.9048 33.0121 13.0927 34.3265 12.7225C35.6409 12.3522 37.0428 12.4463 38.2959 12.9889C39.549 13.5315 40.5768 14.4895 41.206 15.7015C41.8353 16.9134 42.0276 18.3052 41.7505 19.6423C41.4734 20.9795 40.7439 22.1802 39.6848 23.0423C38.6258 23.9044 37.3019 24.375 35.9364 24.375M41.2489 37.5C40.5858 37.5 39.9499 37.7634 39.4811 38.2322C39.0123 38.7011 38.7489 39.337 38.7489 40V50C38.7489 50.6631 39.0123 51.2989 39.4811 51.7678C39.9499 52.2366 40.5858 52.5 41.2489 52.5H48.7489C49.4119 52.5 50.0478 52.2366 50.5166 51.7678C50.9855 51.2989 51.2489 50.6631 51.2489 50V40C51.2489 39.337 50.9855 38.7011 50.5166 38.2322C50.0478 37.7634 49.4119 37.5 48.7489 37.5H41.2489ZM43.7489 47.5V42.5H46.2489V47.5H43.7489Z" fill="#00D8BD"/>
<path d="M36.2489 29.37L36.1953 27.3707L36.1844 27.3711L36.2489 29.37ZM41.6989 27.735L43.1131 26.3208L41.9909 25.1986L40.643 26.0364L41.6989 27.735ZM48.2314 34.2675L46.8172 35.6817L48.2314 37.0959L49.6456 35.6817L48.2314 34.2675ZM51.7664 30.7325L53.1806 32.1467L54.5948 30.7325L53.1806 29.3183L51.7664 30.7325ZM45.2339 24.2L43.534 23.1463L42.6989 24.4935L43.8197 25.6142L45.2339 24.2ZM31.6064 22.5L33.0662 21.1329L33.0649 21.1316L31.6064 22.5ZM43.7489 47.5H41.7489V49.5H43.7489V47.5ZM43.7489 42.5V40.5H41.7489V42.5H43.7489ZM46.2489 42.5H48.2489V40.5H46.2489V42.5ZM46.2489 47.5V49.5H48.2489V47.5H46.2489ZM35.9364 29.375V31.375C36.0625 31.375 36.1882 31.373 36.3134 31.369L36.2489 29.37L36.1844 27.3711C36.1029 27.3737 36.0202 27.375 35.9364 27.375V29.375ZM36.2489 29.37L36.3024 31.3693C38.5868 31.3081 40.8138 30.64 42.7547 29.4336L41.6989 27.735L40.643 26.0364C39.3052 26.868 37.7701 27.3286 36.1953 27.3707L36.2489 29.37ZM41.6989 27.735L40.2847 29.1492L46.8172 35.6817L48.2314 34.2675L49.6456 32.8533L43.1131 26.3208L41.6989 27.735ZM48.2314 34.2675L49.6456 35.6817L53.1806 32.1467L51.7664 30.7325L50.3522 29.3183L46.8172 32.8533L48.2314 34.2675ZM51.7664 30.7325L53.1806 29.3183L46.6481 22.7858L45.2339 24.2L43.8197 25.6142L50.3522 32.1467L51.7664 30.7325ZM45.2339 24.2L46.9338 25.2537C48.4433 22.8185 49.1017 19.9511 48.8058 17.1012L46.8165 17.3078L44.8272 17.5144C45.0316 19.4831 44.5768 21.464 43.534 23.1463L45.2339 24.2ZM46.8165 17.3078L48.8058 17.1012C48.5099 14.2514 47.2763 11.5805 45.2987 9.50735L43.8515 10.8879L42.4044 12.2684C43.7706 13.7005 44.6228 15.5457 44.8272 17.5144L46.8165 17.3078ZM43.8515 10.8879L45.2987 9.50735C43.321 7.43423 40.7111 6.07625 37.8784 5.64643L37.5783 7.62379L37.2783 9.60116C39.2352 9.89809 41.0382 10.8362 42.4044 12.2684L43.8515 10.8879ZM37.5783 7.62379L37.8784 5.64643C35.0456 5.2166 32.1504 5.73926 29.6468 7.13241L30.6192 8.88006L31.5917 10.6277C33.3213 9.66529 35.3214 9.30423 37.2783 9.60116L37.5783 7.62379ZM30.6192 8.88006L29.6468 7.13241C27.1431 8.52556 25.1728 10.7104 24.0448 13.3441L25.8833 14.1315L27.7218 14.9189C28.501 13.0994 29.8622 11.5901 31.5917 10.6277L30.6192 8.88006ZM25.8833 14.1315L24.0448 13.3441C22.9168 15.9779 22.695 18.9116 23.4142 21.685L25.3502 21.183L27.2861 20.6809C26.7893 18.765 26.9425 16.7384 27.7218 14.9189L25.8833 14.1315ZM25.3502 21.183L23.4142 21.685C24.1334 24.4584 25.7529 26.9146 28.0186 28.6683L29.2428 27.0868L30.4669 25.5052C28.9017 24.2937 27.783 22.5969 27.2861 20.6809L25.3502 21.183ZM29.2428 27.0868L28.0186 28.6683C30.2843 30.4221 33.0681 31.3741 35.9332 31.375L35.9339 29.375L35.9345 27.375C33.9552 27.3744 32.0322 26.7167 30.4669 25.5052L29.2428 27.0868ZM35.9339 24.375L35.9329 22.375C35.3955 22.3753 34.8638 22.2652 34.3707 22.0515L33.5755 23.8866L32.7804 25.7218C33.7761 26.1532 34.8497 26.3755 35.9348 26.375L35.9339 24.375ZM33.5755 23.8866L34.3707 22.0515C33.8775 21.8378 33.4335 21.5252 33.0662 21.1329L31.6064 22.5L30.1466 23.8671C30.8883 24.6591 31.7847 25.2904 32.7804 25.7218L33.5755 23.8866ZM31.6064 22.5L33.0649 21.1316C32.4453 20.4712 32.0723 19.6174 32.0087 18.714L30.0137 18.8545L28.0186 18.9949C28.1468 20.8159 28.8988 22.5371 30.1478 23.8684L31.6064 22.5ZM30.0137 18.8545L32.0087 18.714C31.9451 17.8107 32.1949 16.913 32.7158 16.1723L31.0799 15.0217L29.444 13.8711C28.3938 15.3643 27.8904 17.1739 28.0186 18.9949L30.0137 18.8545ZM31.0799 15.0217L32.7158 16.1723C33.2368 15.4316 33.9972 14.8931 34.8688 14.6475L34.3265 12.7225L33.7842 10.7974C32.0271 11.2924 30.4943 12.3779 29.444 13.8711L31.0799 15.0217ZM34.3265 12.7225L34.8688 14.6475C35.7405 14.402 36.6701 14.4644 37.5011 14.8242L38.2959 12.9889L39.0906 11.1536C37.4154 10.4282 35.5413 10.3024 33.7842 10.7974L34.3265 12.7225ZM38.2959 12.9889L37.5011 14.8242C38.3322 15.1841 39.0137 15.8194 39.431 16.6231L41.206 15.7015L42.981 14.7798C42.1398 13.1597 40.7658 11.879 39.0906 11.1536L38.2959 12.9889ZM41.206 15.7015L39.431 16.6231C39.8483 17.4268 39.9758 18.3498 39.7921 19.2365L41.7505 19.6423L43.7089 20.0482C44.0793 18.2606 43.8223 16.4 42.981 14.7798L41.206 15.7015ZM41.7505 19.6423L39.7921 19.2365C39.6083 20.1232 39.1245 20.9195 38.4222 21.4912L39.6848 23.0423L40.9474 24.5934C42.3632 23.441 43.3384 21.8357 43.7089 20.0482L41.7505 19.6423ZM39.6848 23.0423L38.4222 21.4912C37.7199 22.0629 36.842 22.375 35.9364 22.375L35.9364 24.375L35.9363 26.375C37.7619 26.3751 39.5316 25.7458 40.9474 24.5934L39.6848 23.0423ZM41.2489 37.5V35.5C40.0554 35.5 38.9108 35.9741 38.0669 36.818L39.4811 38.2322L40.8953 39.6465C40.9891 39.5527 41.1163 39.5 41.2489 39.5V37.5ZM39.4811 38.2322L38.0669 36.818C37.223 37.6619 36.7489 38.8065 36.7489 40H38.7489H40.7489C40.7489 39.8674 40.8016 39.7402 40.8953 39.6465L39.4811 38.2322ZM38.7489 40H36.7489V50H38.7489H40.7489V40H38.7489ZM38.7489 50H36.7489C36.7489 51.1935 37.223 52.3381 38.0669 53.182L39.4811 51.7678L40.8953 50.3536C40.8016 50.2598 40.7489 50.1326 40.7489 50H38.7489ZM39.4811 51.7678L38.0669 53.182C38.9108 54.0259 40.0554 54.5 41.2489 54.5V52.5V50.5C41.1163 50.5 40.9891 50.4473 40.8953 50.3536L39.4811 51.7678ZM41.2489 52.5V54.5H48.7489V52.5V50.5H41.2489V52.5ZM48.7489 52.5V54.5C49.9423 54.5 51.0869 54.0259 51.9309 53.182L50.5166 51.7678L49.1024 50.3536C49.0087 50.4473 48.8815 50.5 48.7489 50.5V52.5ZM50.5166 51.7678L51.9309 53.182C52.7748 52.3381 53.2489 51.1935 53.2489 50H51.2489H49.2489C49.2489 50.1326 49.1962 50.2598 49.1024 50.3536L50.5166 51.7678ZM51.2489 50H53.2489V40H51.2489H49.2489V50H51.2489ZM51.2489 40H53.2489C53.2489 38.8065 52.7748 37.662 51.9309 36.818L50.5166 38.2322L49.1024 39.6465C49.1962 39.7402 49.2489 39.8674 49.2489 40H51.2489ZM50.5166 38.2322L51.9309 36.818C51.0869 35.9741 49.9423 35.5 48.7489 35.5V37.5V39.5C48.8815 39.5 49.0087 39.5527 49.1024 39.6465L50.5166 38.2322ZM48.7489 37.5V35.5H41.2489V37.5V39.5H48.7489V37.5ZM43.7489 47.5H45.7489V42.5H43.7489H41.7489V47.5H43.7489ZM43.7489 42.5V44.5H46.2489V42.5V40.5H43.7489V42.5ZM46.2489 42.5H44.2489V47.5H46.2489H48.2489V42.5H46.2489ZM46.2489 47.5V45.5H43.7489V47.5V49.5H46.2489V47.5Z" fill="#007666" mask="url(#path-3-outside-1_2548_59813)"/>
</svg>
