<svg width="60" height="60" viewBox="0 0 60 60" fill="none" xmlns="http://www.w3.org/2000/svg">
<mask id="path-1-outside-1_2548_59810" maskUnits="userSpaceOnUse" x="3" y="3" width="54" height="54" fill="black">
<rect fill="white" x="3" y="3" width="54" height="54"/>
<path fill-rule="evenodd" clip-rule="evenodd" d="M44.3184 8.22818C43.6498 5.2453 39.4223 5.26244 38.7777 8.24876L38.7092 8.58133L40.3858 8.94133L38.7057 8.58133C38.338 10.35 37.4514 11.9689 36.1591 13.2312C34.8668 14.4936 33.2276 15.342 31.4507 15.6682C28.3787 16.2134 28.3787 20.65 31.4507 21.1952C33.2273 21.5203 34.8666 22.3674 36.1594 23.6285C37.4523 24.8896 38.34 26.5073 38.7092 28.2752L38.7777 28.6078C39.4223 31.5907 43.6464 31.6147 44.3184 28.6318L44.4041 28.2444C44.7893 26.4819 45.6867 24.8725 46.9836 23.6183C48.2804 22.3641 49.919 21.5211 51.6934 21.1952C54.7689 20.65 54.7689 16.2065 51.6934 15.6614C49.9183 15.336 48.2791 14.4933 46.9815 13.2391C45.684 11.9849 44.7861 10.3752 44.4007 8.61219L44.3184 8.22818ZM21.5146 9.38019C15.9156 9.38019 11.4961 14.0088 11.383 19.5974C7.99546 22.2032 6 27.1129 6 31.8341C6 33.7953 6.33601 35.9141 6.93259 37.841C7.42631 39.4284 8.13261 41.009 9.07206 42.2879V42.3702C9.07206 48.7165 14.0504 54 20.3591 54C22.1587 53.9957 23.9305 53.5555 25.523 52.7172C27.1154 51.8789 28.4811 50.6674 29.5033 49.1862C30.5255 50.6674 31.8912 51.8789 33.4836 52.7172C35.076 53.5555 36.8478 53.9957 38.6474 54C44.9561 54 49.9345 48.7165 49.9345 42.3668V42.2845C50.8739 41.0056 51.5802 39.425 52.074 37.8376C52.6705 35.9073 53.0066 33.7918 53.0066 31.8307C53.0066 30.2569 52.7906 28.7038 52.3928 27.2363C52.3254 26.9581 52.2029 26.6963 52.0326 26.4662C51.8622 26.2361 51.6475 26.0425 51.4011 25.8967C51.1547 25.751 50.8816 25.6561 50.5979 25.6177C50.3143 25.5793 50.0258 25.5981 49.7495 25.673C49.4732 25.7479 49.2147 25.8774 48.9893 26.0539C48.7639 26.2303 48.5761 26.4502 48.4371 26.7004C48.298 26.9507 48.2105 27.2262 48.1798 27.5108C48.149 27.7954 48.1756 28.0833 48.2579 28.3575C48.5562 29.4684 48.7208 30.6478 48.7208 31.8307C48.7208 33.2775 48.4773 34.9027 48.0282 36.401C47.6644 35.8514 47.2233 35.3572 46.7184 34.9336C46.2766 34.596 45.7209 34.4435 45.1687 34.5081C44.6165 34.5726 44.111 34.8493 43.7589 35.2797C43.4069 35.71 43.2359 36.2603 43.2821 36.8144C43.3283 37.3684 43.588 37.8829 44.0064 38.249C44.2533 38.4547 44.6236 38.9347 44.987 39.6959C45.2613 40.2787 45.4807 40.913 45.6179 41.4959C45.6179 41.5782 45.6201 41.6582 45.6247 41.7359C45.6407 41.9416 45.6487 42.1508 45.6487 42.3633C45.6487 46.5017 42.4395 49.7142 38.6474 49.7142C34.9445 49.7142 31.8039 46.6525 31.653 42.665L31.6736 42.3633V32.0158C31.6736 31.4475 31.4478 30.9024 31.046 30.5006C30.6441 30.0987 30.099 29.8729 29.5307 29.8729C28.9624 29.8729 28.4173 30.0987 28.0154 30.5006C27.6136 30.9024 27.3878 31.4475 27.3878 32.0158V42.0273C27.3731 42.1399 27.3639 42.2532 27.3604 42.3668C27.3604 46.5017 24.1512 49.7142 20.3591 49.7142C16.567 49.7142 13.3578 46.5017 13.3578 42.3668C13.3578 42.1725 13.3647 41.9816 13.3784 41.7942C13.5053 41.1325 13.7521 40.3782 14.0744 39.6959C14.4379 38.9313 14.8082 38.4547 15.055 38.249C15.2834 38.0745 15.4744 37.8559 15.6166 37.6061C15.7587 37.3563 15.8492 37.0805 15.8826 36.795C15.916 36.5096 15.8916 36.2203 15.8109 35.9445C15.7302 35.6686 15.5948 35.4118 15.4128 35.1894C15.2309 34.9669 15.006 34.7833 14.7516 34.6495C14.4973 34.5158 14.2186 34.4345 13.9321 34.4107C13.6457 34.3868 13.3574 34.4208 13.0844 34.5106C12.8114 34.6004 12.5593 34.7443 12.343 34.9336C11.8218 35.3587 11.3727 35.8936 10.9921 36.4559C10.5376 34.9556 10.2997 33.3982 10.2858 31.8307C10.2858 28.9506 11.2252 26.3038 12.5624 24.4935C12.9361 25.1586 13.3716 25.7346 13.8276 26.2249C14.9076 27.3906 16.2208 28.1826 17.3111 28.4398C17.5874 28.5123 17.8755 28.5288 18.1584 28.4883C18.4413 28.4478 18.7132 28.3512 18.9581 28.2041C19.2031 28.057 19.4161 27.8624 19.5848 27.6317C19.7534 27.401 19.8742 27.139 19.94 26.8609C20.0059 26.5829 20.0155 26.2945 19.9682 26.0127C19.921 25.7309 19.8178 25.4614 19.6649 25.22C19.5119 24.9787 19.3122 24.7703 19.0776 24.6073C18.8429 24.4442 18.5781 24.3298 18.2985 24.2706L18.1751 24.2226C18.061 24.1682 17.9499 24.1075 17.8425 24.0409C17.5196 23.835 17.2246 23.5884 16.9648 23.3072C16.2466 22.5342 15.8032 21.5461 15.703 20.4957C15.6805 20.2713 15.6691 20.0459 15.6687 19.8203C15.6687 16.3471 18.3602 13.6694 21.5146 13.6694C22.646 13.6694 23.702 14.0054 24.6003 14.5951C25.0764 14.9065 25.6566 15.0161 26.2135 14.8997C26.7703 14.7834 27.2581 14.4505 27.5695 13.9745C27.881 13.4985 27.9906 12.9182 27.8742 12.3614C27.7578 11.8046 27.425 11.3168 26.9489 11.0054C25.3333 9.94869 23.445 9.38176 21.5146 9.38019Z"/>
</mask>
<path fill-rule="evenodd" clip-rule="evenodd" d="M44.3184 8.22818C43.6498 5.2453 39.4223 5.26244 38.7777 8.24876L38.7092 8.58133L40.3858 8.94133L38.7057 8.58133C38.338 10.35 37.4514 11.9689 36.1591 13.2312C34.8668 14.4936 33.2276 15.342 31.4507 15.6682C28.3787 16.2134 28.3787 20.65 31.4507 21.1952C33.2273 21.5203 34.8666 22.3674 36.1594 23.6285C37.4523 24.8896 38.34 26.5073 38.7092 28.2752L38.7777 28.6078C39.4223 31.5907 43.6464 31.6147 44.3184 28.6318L44.4041 28.2444C44.7893 26.4819 45.6867 24.8725 46.9836 23.6183C48.2804 22.3641 49.919 21.5211 51.6934 21.1952C54.7689 20.65 54.7689 16.2065 51.6934 15.6614C49.9183 15.336 48.2791 14.4933 46.9815 13.2391C45.684 11.9849 44.7861 10.3752 44.4007 8.61219L44.3184 8.22818ZM21.5146 9.38019C15.9156 9.38019 11.4961 14.0088 11.383 19.5974C7.99546 22.2032 6 27.1129 6 31.8341C6 33.7953 6.33601 35.9141 6.93259 37.841C7.42631 39.4284 8.13261 41.009 9.07206 42.2879V42.3702C9.07206 48.7165 14.0504 54 20.3591 54C22.1587 53.9957 23.9305 53.5555 25.523 52.7172C27.1154 51.8789 28.4811 50.6674 29.5033 49.1862C30.5255 50.6674 31.8912 51.8789 33.4836 52.7172C35.076 53.5555 36.8478 53.9957 38.6474 54C44.9561 54 49.9345 48.7165 49.9345 42.3668V42.2845C50.8739 41.0056 51.5802 39.425 52.074 37.8376C52.6705 35.9073 53.0066 33.7918 53.0066 31.8307C53.0066 30.2569 52.7906 28.7038 52.3928 27.2363C52.3254 26.9581 52.2029 26.6963 52.0326 26.4662C51.8622 26.2361 51.6475 26.0425 51.4011 25.8967C51.1547 25.751 50.8816 25.6561 50.5979 25.6177C50.3143 25.5793 50.0258 25.5981 49.7495 25.673C49.4732 25.7479 49.2147 25.8774 48.9893 26.0539C48.7639 26.2303 48.5761 26.4502 48.4371 26.7004C48.298 26.9507 48.2105 27.2262 48.1798 27.5108C48.149 27.7954 48.1756 28.0833 48.2579 28.3575C48.5562 29.4684 48.7208 30.6478 48.7208 31.8307C48.7208 33.2775 48.4773 34.9027 48.0282 36.401C47.6644 35.8514 47.2233 35.3572 46.7184 34.9336C46.2766 34.596 45.7209 34.4435 45.1687 34.5081C44.6165 34.5726 44.111 34.8493 43.7589 35.2797C43.4069 35.71 43.2359 36.2603 43.2821 36.8144C43.3283 37.3684 43.588 37.8829 44.0064 38.249C44.2533 38.4547 44.6236 38.9347 44.987 39.6959C45.2613 40.2787 45.4807 40.913 45.6179 41.4959C45.6179 41.5782 45.6201 41.6582 45.6247 41.7359C45.6407 41.9416 45.6487 42.1508 45.6487 42.3633C45.6487 46.5017 42.4395 49.7142 38.6474 49.7142C34.9445 49.7142 31.8039 46.6525 31.653 42.665L31.6736 42.3633V32.0158C31.6736 31.4475 31.4478 30.9024 31.046 30.5006C30.6441 30.0987 30.099 29.8729 29.5307 29.8729C28.9624 29.8729 28.4173 30.0987 28.0154 30.5006C27.6136 30.9024 27.3878 31.4475 27.3878 32.0158V42.0273C27.3731 42.1399 27.3639 42.2532 27.3604 42.3668C27.3604 46.5017 24.1512 49.7142 20.3591 49.7142C16.567 49.7142 13.3578 46.5017 13.3578 42.3668C13.3578 42.1725 13.3647 41.9816 13.3784 41.7942C13.5053 41.1325 13.7521 40.3782 14.0744 39.6959C14.4379 38.9313 14.8082 38.4547 15.055 38.249C15.2834 38.0745 15.4744 37.8559 15.6166 37.6061C15.7587 37.3563 15.8492 37.0805 15.8826 36.795C15.916 36.5096 15.8916 36.2203 15.8109 35.9445C15.7302 35.6686 15.5948 35.4118 15.4128 35.1894C15.2309 34.9669 15.006 34.7833 14.7516 34.6495C14.4973 34.5158 14.2186 34.4345 13.9321 34.4107C13.6457 34.3868 13.3574 34.4208 13.0844 34.5106C12.8114 34.6004 12.5593 34.7443 12.343 34.9336C11.8218 35.3587 11.3727 35.8936 10.9921 36.4559C10.5376 34.9556 10.2997 33.3982 10.2858 31.8307C10.2858 28.9506 11.2252 26.3038 12.5624 24.4935C12.9361 25.1586 13.3716 25.7346 13.8276 26.2249C14.9076 27.3906 16.2208 28.1826 17.3111 28.4398C17.5874 28.5123 17.8755 28.5288 18.1584 28.4883C18.4413 28.4478 18.7132 28.3512 18.9581 28.2041C19.2031 28.057 19.4161 27.8624 19.5848 27.6317C19.7534 27.401 19.8742 27.139 19.94 26.8609C20.0059 26.5829 20.0155 26.2945 19.9682 26.0127C19.921 25.7309 19.8178 25.4614 19.6649 25.22C19.5119 24.9787 19.3122 24.7703 19.0776 24.6073C18.8429 24.4442 18.5781 24.3298 18.2985 24.2706L18.1751 24.2226C18.061 24.1682 17.9499 24.1075 17.8425 24.0409C17.5196 23.835 17.2246 23.5884 16.9648 23.3072C16.2466 22.5342 15.8032 21.5461 15.703 20.4957C15.6805 20.2713 15.6691 20.0459 15.6687 19.8203C15.6687 16.3471 18.3602 13.6694 21.5146 13.6694C22.646 13.6694 23.702 14.0054 24.6003 14.5951C25.0764 14.9065 25.6566 15.0161 26.2135 14.8997C26.7703 14.7834 27.2581 14.4505 27.5695 13.9745C27.881 13.4985 27.9906 12.9182 27.8742 12.3614C27.7578 11.8046 27.425 11.3168 26.9489 11.0054C25.3333 9.94869 23.445 9.38176 21.5146 9.38019Z" fill="#00D8BD"/>
<path fill-rule="evenodd" clip-rule="evenodd" d="M44.3184 8.22818C43.6498 5.2453 39.4223 5.26244 38.7777 8.24876L38.7092 8.58133L40.3858 8.94133L38.7057 8.58133C38.338 10.35 37.4514 11.9689 36.1591 13.2312C34.8668 14.4936 33.2276 15.342 31.4507 15.6682C28.3787 16.2134 28.3787 20.65 31.4507 21.1952C33.2273 21.5203 34.8666 22.3674 36.1594 23.6285C37.4523 24.8896 38.34 26.5073 38.7092 28.2752L38.7777 28.6078C39.4223 31.5907 43.6464 31.6147 44.3184 28.6318L44.4041 28.2444C44.7893 26.4819 45.6867 24.8725 46.9836 23.6183C48.2804 22.3641 49.919 21.5211 51.6934 21.1952C54.7689 20.65 54.7689 16.2065 51.6934 15.6614C49.9183 15.336 48.2791 14.4933 46.9815 13.2391C45.684 11.9849 44.7861 10.3752 44.4007 8.61219L44.3184 8.22818ZM21.5146 9.38019C15.9156 9.38019 11.4961 14.0088 11.383 19.5974C7.99546 22.2032 6 27.1129 6 31.8341C6 33.7953 6.33601 35.9141 6.93259 37.841C7.42631 39.4284 8.13261 41.009 9.07206 42.2879V42.3702C9.07206 48.7165 14.0504 54 20.3591 54C22.1587 53.9957 23.9305 53.5555 25.523 52.7172C27.1154 51.8789 28.4811 50.6674 29.5033 49.1862C30.5255 50.6674 31.8912 51.8789 33.4836 52.7172C35.076 53.5555 36.8478 53.9957 38.6474 54C44.9561 54 49.9345 48.7165 49.9345 42.3668V42.2845C50.8739 41.0056 51.5802 39.425 52.074 37.8376C52.6705 35.9073 53.0066 33.7918 53.0066 31.8307C53.0066 30.2569 52.7906 28.7038 52.3928 27.2363C52.3254 26.9581 52.2029 26.6963 52.0326 26.4662C51.8622 26.2361 51.6475 26.0425 51.4011 25.8967C51.1547 25.751 50.8816 25.6561 50.5979 25.6177C50.3143 25.5793 50.0258 25.5981 49.7495 25.673C49.4732 25.7479 49.2147 25.8774 48.9893 26.0539C48.7639 26.2303 48.5761 26.4502 48.4371 26.7004C48.298 26.9507 48.2105 27.2262 48.1798 27.5108C48.149 27.7954 48.1756 28.0833 48.2579 28.3575C48.5562 29.4684 48.7208 30.6478 48.7208 31.8307C48.7208 33.2775 48.4773 34.9027 48.0282 36.401C47.6644 35.8514 47.2233 35.3572 46.7184 34.9336C46.2766 34.596 45.7209 34.4435 45.1687 34.5081C44.6165 34.5726 44.111 34.8493 43.7589 35.2797C43.4069 35.71 43.2359 36.2603 43.2821 36.8144C43.3283 37.3684 43.588 37.8829 44.0064 38.249C44.2533 38.4547 44.6236 38.9347 44.987 39.6959C45.2613 40.2787 45.4807 40.913 45.6179 41.4959C45.6179 41.5782 45.6201 41.6582 45.6247 41.7359C45.6407 41.9416 45.6487 42.1508 45.6487 42.3633C45.6487 46.5017 42.4395 49.7142 38.6474 49.7142C34.9445 49.7142 31.8039 46.6525 31.653 42.665L31.6736 42.3633V32.0158C31.6736 31.4475 31.4478 30.9024 31.046 30.5006C30.6441 30.0987 30.099 29.8729 29.5307 29.8729C28.9624 29.8729 28.4173 30.0987 28.0154 30.5006C27.6136 30.9024 27.3878 31.4475 27.3878 32.0158V42.0273C27.3731 42.1399 27.3639 42.2532 27.3604 42.3668C27.3604 46.5017 24.1512 49.7142 20.3591 49.7142C16.567 49.7142 13.3578 46.5017 13.3578 42.3668C13.3578 42.1725 13.3647 41.9816 13.3784 41.7942C13.5053 41.1325 13.7521 40.3782 14.0744 39.6959C14.4379 38.9313 14.8082 38.4547 15.055 38.249C15.2834 38.0745 15.4744 37.8559 15.6166 37.6061C15.7587 37.3563 15.8492 37.0805 15.8826 36.795C15.916 36.5096 15.8916 36.2203 15.8109 35.9445C15.7302 35.6686 15.5948 35.4118 15.4128 35.1894C15.2309 34.9669 15.006 34.7833 14.7516 34.6495C14.4973 34.5158 14.2186 34.4345 13.9321 34.4107C13.6457 34.3868 13.3574 34.4208 13.0844 34.5106C12.8114 34.6004 12.5593 34.7443 12.343 34.9336C11.8218 35.3587 11.3727 35.8936 10.9921 36.4559C10.5376 34.9556 10.2997 33.3982 10.2858 31.8307C10.2858 28.9506 11.2252 26.3038 12.5624 24.4935C12.9361 25.1586 13.3716 25.7346 13.8276 26.2249C14.9076 27.3906 16.2208 28.1826 17.3111 28.4398C17.5874 28.5123 17.8755 28.5288 18.1584 28.4883C18.4413 28.4478 18.7132 28.3512 18.9581 28.2041C19.2031 28.057 19.4161 27.8624 19.5848 27.6317C19.7534 27.401 19.8742 27.139 19.94 26.8609C20.0059 26.5829 20.0155 26.2945 19.9682 26.0127C19.921 25.7309 19.8178 25.4614 19.6649 25.22C19.5119 24.9787 19.3122 24.7703 19.0776 24.6073C18.8429 24.4442 18.5781 24.3298 18.2985 24.2706L18.1751 24.2226C18.061 24.1682 17.9499 24.1075 17.8425 24.0409C17.5196 23.835 17.2246 23.5884 16.9648 23.3072C16.2466 22.5342 15.8032 21.5461 15.703 20.4957C15.6805 20.2713 15.6691 20.0459 15.6687 19.8203C15.6687 16.3471 18.3602 13.6694 21.5146 13.6694C22.646 13.6694 23.702 14.0054 24.6003 14.5951C25.0764 14.9065 25.6566 15.0161 26.2135 14.8997C26.7703 14.7834 27.2581 14.4505 27.5695 13.9745C27.881 13.4985 27.9906 12.9182 27.8742 12.3614C27.7578 11.8046 27.425 11.3168 26.9489 11.0054C25.3333 9.94869 23.445 9.38176 21.5146 9.38019Z" stroke="#007666" stroke-width="6" mask="url(#path-1-outside-1_2548_59810)"/>
</svg>
