<svg width="53" height="53" viewBox="0 0 53 53" fill="none" xmlns="http://www.w3.org/2000/svg">
<path d="M32.4639 7.68848C37.2599 7.68848 41.8566 9.62885 45.2422 13.0771C48.6272 16.5248 50.5254 21.1974 50.5254 26.0654C50.5254 30.9334 48.6272 35.606 45.2422 39.0537C41.8565 42.502 37.26 44.4424 32.4639 44.4424C27.668 44.4423 23.0721 42.5019 19.6865 39.0537C16.3015 35.606 14.4033 30.9334 14.4033 26.0654C14.4033 21.1974 16.3015 16.5248 19.6865 13.0771C23.072 9.62896 27.668 7.68861 32.4639 7.68848ZM13.5674 33.7539L13.8271 34.3604C14.4555 35.826 15.27 37.2167 16.2119 38.5098L17.3691 40.0986H4.74023C3.90353 40.0986 3.10455 39.7598 2.51855 39.1631C1.93315 38.5668 1.60742 37.7612 1.60742 36.9258C1.60753 36.0905 1.93325 35.2856 2.51855 34.6895C3.10455 34.0927 3.90349 33.7539 4.74023 33.7539H13.5674ZM32.4639 14.0332C29.3416 14.0333 26.3434 15.2963 24.1299 17.5508C21.9158 19.806 20.669 22.8684 20.6689 26.0654C20.6689 29.2625 21.9158 32.3249 24.1299 34.5801C26.3434 36.8346 29.3416 38.0985 32.4639 38.0986C35.5863 38.0986 38.5852 36.8347 40.7988 34.5801C43.0129 32.3249 44.2598 29.2625 44.2598 26.0654C44.2597 22.8684 43.013 19.806 40.7988 17.5508C38.5852 15.2962 35.5863 14.0332 32.4639 14.0332ZM34.5303 16.377V25.1777L39.2129 29.9482L39.9014 30.6484L39.2129 31.3496L36.9531 33.6514L36.2393 34.3789L35.5254 33.6514L29.6182 27.6348L29.332 27.3428V16.377H34.5303ZM12.2949 22.8936L12.2432 23.9424L12.1387 26.0654L12.2432 28.1885L12.2949 29.2373H6.87305C6.03624 29.2373 5.23738 28.8986 4.65137 28.3018C4.06598 27.7055 3.74023 26.9009 3.74023 26.0654C3.74026 25.23 4.06599 24.4253 4.65137 23.8291C5.23737 23.2323 6.03627 22.8936 6.87305 22.8936H12.2949ZM17.3691 12.0332L16.2119 13.6211C15.2699 14.9143 14.4555 16.3057 13.8271 17.7715L13.5674 18.377H9.00488C8.16834 18.3768 7.37007 18.038 6.78418 17.4414C6.19883 16.8452 5.8731 16.0404 5.87305 15.2051C5.87305 14.3696 6.19878 13.565 6.78418 12.9688C7.37008 12.372 8.16824 12.0333 9.00488 12.0332H17.3691Z" fill="#007666" stroke="#00D8BD" stroke-width="2"/>
</svg>
