<svg width="50" height="50" viewBox="0 0 50 50" fill="none" xmlns="http://www.w3.org/2000/svg">
<path d="M20.8037 13.5834L20.9717 13.6459L36.1797 19.2709L36.1914 19.2748L36.2041 19.2797C37.5677 19.8251 38.499 20.9909 38.499 22.5004C38.499 23.3238 38.2276 24.2269 37.5811 24.8734C37.0554 25.3991 36.1911 26.0004 34.999 26.0004H29.1514L29.3584 26.0834H43.749C45.1821 26.0834 46.5421 26.5583 47.4131 27.6683C48.4013 28.6769 48.916 29.9529 48.916 31.2504V31.9427L48.2676 32.1859L31.6006 38.4359L31.292 38.5521L30.9746 38.4613L16.3916 34.2953L15.666 34.0873V13.5834H20.8037ZM13.499 13.5834V38.5004H3.16602V13.5834H13.499Z" fill="#007666" stroke="#00D8BD" stroke-width="2"/>
</svg>
