<svg width="60" height="60" viewBox="0 0 60 60" fill="none" xmlns="http://www.w3.org/2000/svg">
<path d="M13.3747 52.762H20.805V45.3425H13.3747V52.762ZM7.16438 39.1326V45.3425H13.3747V39.1326H7.16438ZM54.1655 22.0253C51.8467 14.5453 45.8582 8.58744 38.3775 6.23858C21.2284 0.885613 5.41016 13.638 5.41016 29.9892H15.0685C15.0685 19.7269 25.2511 11.7932 36.0486 15.7046C40.0511 17.1461 43.2571 20.3519 44.6988 24.3439C48.6407 35.1305 40.6963 45.2921 30.4432 45.3122V45.3425H30.4129V55C46.8059 55 59.529 39.1931 54.1655 22.0253ZM30.4432 45.3122V35.7051H20.805V45.3425H30.4129V45.3122H30.4432Z" fill="#00D8BD"/>
</svg>
