<svg width="50" height="50" viewBox="0 0 50 50" fill="none" xmlns="http://www.w3.org/2000/svg">
<path d="M20.5417 44.6458L18.75 45.8333L12.5 41.6667L6.25 45.8333V6.25H43.75V21.25C41.875 20.4583 39.5833 20.8333 38 22.3958L20.5417 39.8542V44.6458ZM24.7083 41.5833L37.5 28.8125L41.7292 33.0625L28.9583 45.8333H24.7083V41.5833ZM42.4792 25.3125C42.433 25.2596 42.3762 25.217 42.3125 25.1875C42.1194 25.0537 41.8866 24.9891 41.6521 25.0042C41.4177 25.0193 41.1952 25.1133 41.0208 25.2708L40.9792 25.3125L38.9375 27.3542L43.1875 31.6042L45.2292 29.5625C45.6458 29.1667 45.6458 28.4792 45.2292 28.0625L42.4792 25.3125Z" fill="#00D8BD"/>
</svg>
