<svg width="55" height="55" viewBox="0 0 55 55" fill="none" xmlns="http://www.w3.org/2000/svg">
<path d="M32.543 30.9374V33.7791C30.9388 35.1541 29.793 37.2166 29.793 39.4166V47.4374C29.793 48.4916 30.0221 49.4999 30.4117 50.4166H13.7513C11.2076 50.4166 9.16797 48.377 9.16797 45.8332V9.16658C9.16797 7.95101 9.65085 6.78522 10.5104 5.92568C11.3699 5.06614 12.5357 4.58325 13.7513 4.58325H16.043V20.6249L21.7721 17.1874L27.5013 20.6249V4.58325H41.2513C42.4669 4.58325 43.6327 5.06614 44.4922 5.92568C45.3517 6.78522 45.8346 7.95101 45.8346 9.16658V20.877C45.1013 20.7166 44.3221 20.6249 43.543 20.6249C37.5846 20.6249 32.543 25.3458 32.543 30.9374ZM49.9596 36.6666H40.1055V30.9374C40.1055 29.1041 41.7096 27.9583 43.543 27.9583C45.3763 27.9583 46.9805 29.1041 46.9805 30.9374V32.0833H49.9596V30.9374C49.9596 27.7291 46.7513 25.2083 43.543 25.2083C40.3346 25.2083 37.1263 27.7291 37.1263 30.9374V36.6666C35.7513 36.6666 34.3763 38.0416 34.3763 39.4166V47.4374C34.3763 49.0416 35.7513 50.4166 37.1263 50.4166H49.7305C51.3346 50.4166 52.7096 49.0416 52.7096 47.6666V39.6457C52.7096 38.0416 51.3346 36.6666 49.9596 36.6666Z" fill="#00D8BD"/>
</svg>
