<svg width="50" height="50" viewBox="0 0 50 50" fill="none" xmlns="http://www.w3.org/2000/svg">
<path d="M35.4284 33.3395H39.595V8.33952H18.7617V12.5062H35.4284V33.3395ZM35.4284 37.5062V43.7541C35.4284 44.9062 34.4909 45.8374 33.3305 45.8374H8.35964C8.08482 45.8394 7.81235 45.7869 7.5579 45.6831C7.30345 45.5792 7.07206 45.4261 6.87706 45.2324C6.68206 45.0388 6.52729 44.8085 6.42169 44.5547C6.31608 44.301 6.26171 44.0289 6.26172 43.7541L6.26589 14.5916C6.26589 13.4395 7.20339 12.5062 8.3638 12.5062H14.593V6.25618C14.593 5.70365 14.8125 5.17375 15.2032 4.78305C15.5939 4.39234 16.1238 4.17285 16.6763 4.17285H41.6763C42.2288 4.17285 42.7587 4.39234 43.1494 4.78305C43.5401 5.17375 43.7596 5.70365 43.7596 6.25618V35.4228C43.7596 35.9754 43.5401 36.5053 43.1494 36.896C42.7587 37.2867 42.2288 37.5062 41.6763 37.5062H35.4284ZM14.5951 33.3395V37.5062H18.7617V39.5895H22.9284V37.5062H23.9701C25.3514 37.5062 26.6761 36.9575 27.6529 35.9807C28.6297 35.0039 29.1784 33.6792 29.1784 32.2978C29.1784 30.9165 28.6297 29.5918 27.6529 28.615C26.6761 27.6383 25.3514 27.0895 23.9701 27.0895H17.7201C17.4438 27.0895 17.1788 26.9798 16.9835 26.7844C16.7881 26.5891 16.6784 26.3241 16.6784 26.0479C16.6784 25.7716 16.7881 25.5066 16.9835 25.3113C17.1788 25.1159 17.4438 25.0062 17.7201 25.0062H27.0951V20.8395H22.9284V18.7562H18.7617V20.8395H17.7201C16.3387 20.8395 15.014 21.3883 14.0372 22.365C13.0605 23.3418 12.5117 24.6665 12.5117 26.0479C12.5117 27.4292 13.0605 28.7539 14.0372 29.7307C15.014 30.7075 16.3387 31.2562 17.7201 31.2562H23.9701C24.2463 31.2562 24.5113 31.3659 24.7066 31.5613C24.902 31.7566 25.0117 32.0216 25.0117 32.2978C25.0117 32.5741 24.902 32.8391 24.7066 33.0344C24.5113 33.2298 24.2463 33.3395 23.9701 33.3395H14.5951Z" fill="#00D8BD"/>
</svg>
