<svg width="50" height="50" viewBox="0 0 50 50" fill="none" xmlns="http://www.w3.org/2000/svg">
<path fill-rule="evenodd" clip-rule="evenodd" d="M23.6649 21.4333C23.5718 21.4277 23.4786 21.4405 23.3905 21.4709C23.3024 21.5014 23.2211 21.549 23.1515 21.6109C23.0818 21.6729 23.025 21.7479 22.9844 21.8319C22.9438 21.9158 22.9202 22.0069 22.9149 22.1C22.6253 23.1375 22.2711 24.1791 22.0649 25.1979C21.9565 25.6423 21.901 26.093 21.8982 26.55V27.9437C21.9913 29.0604 22.1718 30.1625 22.4399 31.25C22.445 31.3576 22.472 31.463 22.5192 31.5599C22.5665 31.6567 22.633 31.7428 22.7147 31.813C22.7965 31.8833 22.8917 31.9361 22.9945 31.9682C23.0973 32.0003 23.2056 32.0112 23.3128 32C23.4772 31.9661 23.6288 31.8867 23.7503 31.7708L24.2482 31.9166V32.0625C24.2281 32.2285 24.2281 32.3964 24.2482 32.5625C24.2299 32.721 24.2299 32.8811 24.2482 33.0396C24.9565 34.8687 25.2899 34.8687 25.642 34.8479C26.4961 34.8479 26.8899 32.5187 26.8899 32.4771V32.2896H28.0545C28.5491 32.2004 29.0188 32.0058 29.4314 31.7189C29.8442 31.432 30.1902 31.0596 30.4461 30.6271C30.7379 30.1117 30.8569 29.5165 30.7856 28.9286C30.7144 28.3407 30.4567 27.7911 30.0503 27.3604C30.0503 27.3604 29.8003 27.2146 29.6961 27.1312C29.9975 26.9007 30.2475 26.6236 30.4461 26.3C30.7548 25.7673 30.8773 25.1471 30.7944 24.537C30.7114 23.927 30.4276 23.362 29.9878 22.9312C29.4543 22.3977 28.7974 22.0041 28.0753 21.7854C27.7003 21.7854 27.3253 21.7854 26.9503 21.6604C27.0281 21.5437 27.0906 21.4187 27.1378 21.2854C27.1938 21.139 27.2289 20.9854 27.242 20.8291C27.2702 20.6777 27.2702 20.5223 27.242 20.3708C26.8045 18.2916 26.2232 18.4375 26.1815 18.4166C25.5149 18.4166 24.644 20.1021 24.644 20.1229C24.5706 20.2873 24.5282 20.4639 24.519 20.6437C24.4982 20.8159 24.4982 20.9889 24.519 21.1625L24.644 21.5166H23.9357C23.8509 21.4736 23.7593 21.4454 23.6649 21.4333ZM25.1857 23.3458C25.776 23.4708 26.351 23.6514 26.9107 23.8875C27.3274 24.05 27.692 24.3312 27.9503 24.7V25.0312C27.8205 25.2079 27.6382 25.3392 27.4295 25.4062L26.0378 25.8229H24.7045C24.6857 24.9229 24.6021 24.0254 24.4545 23.1375L25.1857 23.3458ZM24.4982 27.9646C24.4893 27.8536 24.4893 27.7422 24.4982 27.6312H24.7899C25.1871 27.7284 25.5892 27.8048 25.9961 27.8604C26.3017 27.9284 26.5996 28.0187 26.8899 28.1312C27.3313 28.305 27.7113 28.6059 27.9815 28.9958C28.0005 29.039 28.0057 29.087 27.9963 29.1332C27.987 29.1794 27.9637 29.2217 27.9295 29.2541C27.8051 29.4407 27.6217 29.5802 27.4086 29.65L26.017 30.0458C25.6078 30.0761 25.197 30.0761 24.7878 30.0458H24.1857C24.269 29.4416 24.394 28.7125 24.4982 27.9625M11.269 10.2208C11.8135 10.0361 12.3406 9.80692 12.8503 9.53331C14.7212 10.9613 16.8341 12.0404 19.0878 12.7187C19.0878 13.1771 18.817 13.6354 18.7961 14.1146C18.7723 14.22 18.7703 14.3292 18.7902 14.4355C18.8102 14.5417 18.8517 14.6428 18.9122 14.7324C18.9727 14.822 19.0509 14.8982 19.1421 14.9564C19.2332 15.0146 19.3352 15.0536 19.442 15.0708C19.6514 15.1068 19.8666 15.0594 20.0414 14.9387C20.2163 14.818 20.3369 14.6336 20.3774 14.425C20.5107 14.0472 20.6704 13.6798 20.8565 13.3229H21.0649C22.5232 13.6187 24.0065 13.7562 25.494 13.7396C26.9668 13.7102 28.4345 13.5568 29.8815 13.2812C30.2982 13.2812 30.6732 13.0104 31.0899 12.9271C31.3607 13.3854 31.6315 13.8437 31.8586 14.3229C31.8621 14.448 31.8944 14.5706 31.9531 14.6811C32.0117 14.7917 32.0951 14.8872 32.1967 14.9602C32.2983 15.0332 32.4154 15.0818 32.5389 15.1021C32.6624 15.1224 32.7889 15.1139 32.9085 15.0773C33.0282 15.0407 33.1378 14.9769 33.2288 14.891C33.3197 14.8051 33.3896 14.6993 33.433 14.5819C33.4763 14.4645 33.492 14.3387 33.4787 14.2143C33.4655 14.0899 33.4237 13.9702 33.3565 13.8646C33.2524 13.3854 33.0232 12.9271 32.8982 12.4271C34.8234 11.841 36.6843 11.0613 38.4524 10.1C38.9843 10.4347 39.4767 10.8229 39.9295 11.2646C41.1774 12.3875 42.342 10.3896 41.6961 9.61872C40.5168 8.42467 39.1975 7.3775 37.767 6.49997C33.8045 4.52416 29.463 3.42494 25.0378 3.27706C19.7318 3.18816 14.5682 4.99506 10.4753 8.37289C9.39405 9.16456 10.5795 10.6187 11.267 10.2229M36.5795 8.93331C35.1307 9.48047 33.6433 9.91917 32.1295 10.2458C32.0711 10.034 32.0015 9.82533 31.9211 9.62081C31.406 8.46233 30.6878 7.40539 29.8003 6.49997C32.1751 6.94527 34.4636 7.76671 36.5795 8.93331ZM22.2295 10.5791C22.5836 9.95414 22.9774 9.34997 23.3315 8.70414C23.6857 8.06039 24.3503 6.91664 24.869 6.04372H26.119C26.5774 6.56456 27.0336 7.04164 27.4274 7.58122L28.1565 8.64372L29.2378 10.1812L29.592 10.7021H29.3836C28.0572 10.8743 26.726 10.9646 25.3899 10.9729C24.2847 10.9661 23.1809 10.8966 22.0836 10.7646L22.2295 10.5791ZM21.917 6.29164C21.7711 6.45831 21.5836 6.58331 21.4378 6.74997C21.0545 7.22324 20.7064 7.72388 20.3961 8.24789C20.0955 8.78418 19.8316 9.34033 19.6065 9.91247C19.6065 10.0583 19.6065 10.225 19.5024 10.3916C17.7527 10.0198 16.0601 9.41733 14.469 8.59997C16.7856 7.36815 19.3139 6.58498 21.9211 6.29164M30.717 46.0812C30.717 46.0812 30.8628 45.9771 30.9045 45.8937C31.1878 45.4576 31.4308 44.9993 31.6336 44.5187C31.8322 44.0409 31.9913 43.5493 32.1107 43.0437V42.3562C33.0996 42.3354 34.0843 42.2521 35.0649 42.1062C35.8753 41.7125 34.8565 39.6958 33.8982 39.7791H32.4024V39.4458C32.4238 39.3383 32.4233 39.2276 32.4009 39.1203C32.3785 39.013 32.3345 38.9114 32.2718 38.8215C32.209 38.7317 32.1288 38.6554 32.0358 38.5974C31.9428 38.5394 31.839 38.5007 31.7307 38.4839C31.6224 38.467 31.5118 38.4722 31.4056 38.4992C31.2994 38.5262 31.1997 38.5744 31.1126 38.6409C31.0254 38.7074 30.9527 38.7908 30.8987 38.8862C30.8446 38.9816 30.8105 39.0869 30.7982 39.1958C30.7982 39.4041 30.6315 39.6333 30.5711 39.8416H20.7961L20.8795 39.5708C20.855 39.4668 20.8102 39.3686 20.7477 39.2819C20.6852 39.1952 20.6062 39.1217 20.5152 39.0656C20.4243 39.0094 20.3231 38.9718 20.2176 38.9548C20.1121 38.9379 20.0043 38.9419 19.9003 38.9666C19.7422 39.0074 19.6018 39.0986 19.5002 39.2265C19.3987 39.3543 19.3417 39.5118 19.3378 39.675C18.0085 39.6648 16.6815 39.5603 15.367 39.3625C14.617 39.2583 14.0336 41.1521 15.4711 41.4416C16.5107 41.6291 18.569 42.0458 19.6295 42.15C19.6642 42.525 19.7197 42.8993 19.7961 43.2729C19.9925 44.18 20.3602 45.0412 20.8795 45.8104C21.1059 46.1215 21.3552 46.4132 21.6274 46.6854C18.3185 45.578 15.1763 44.0241 12.2878 42.0666C11.4128 41.4208 10.2086 42.7541 11.2878 43.4604C14.9089 46.0117 19.0279 47.7695 23.3753 48.6187H23.4795C23.9795 48.6187 24.4774 48.8271 24.9961 48.8687C25.0897 48.8834 25.1853 48.8785 25.2769 48.8545C25.3685 48.8305 25.4541 48.7878 25.5284 48.7291C25.6028 48.6704 25.6642 48.597 25.7088 48.5135C25.7534 48.43 25.7803 48.3381 25.7878 48.2437C25.7994 48.1506 25.7924 48.0561 25.7672 47.9657C25.7419 47.8753 25.699 47.7908 25.6409 47.7172C25.5827 47.6435 25.5105 47.5822 25.4284 47.5366C25.3464 47.4911 25.2561 47.4624 25.1628 47.4521L24.0399 47.2229C23.6857 46.3729 23.4357 45.5187 23.1232 44.625C22.9774 44.2291 22.8128 43.8333 22.6461 43.4583C22.4795 43.0854 22.292 42.6896 22.1045 42.3166L24.6836 42.5041H29.5315C29.4065 42.775 29.3024 43.0229 29.1774 43.2729C29.0524 43.5229 28.8024 44.1479 28.6149 44.5833C28.4274 45.0187 28.3232 45.5208 28.1357 45.9562C27.9122 46.5126 27.641 47.0486 27.3253 47.5583C27.1923 47.6945 27.1179 47.8773 27.1179 48.0677C27.1179 48.258 27.1923 48.4408 27.3253 48.5771C28.1378 49.3271 35.5003 47.1604 38.1003 44.8333C38.642 44.3958 37.892 43.1875 36.6649 43.5C34.7545 44.5208 32.7649 45.3812 30.717 46.0812Z" fill="#00D8BD"/>
<path fill-rule="evenodd" clip-rule="evenodd" d="M49.1863 39.4459C48.9098 38.7093 48.4762 38.0417 47.9155 37.4897C47.1051 36.4501 46.378 37.7605 46.8155 38.7814C47.0405 39.2147 47.2273 39.6647 47.3759 40.1314C47.6363 40.9584 47.7405 41.8251 47.6884 42.6897C47.6704 43.0814 47.5565 43.4628 47.3567 43.8002C47.157 44.1377 46.8774 44.4209 46.5426 44.6251C46.2052 44.7997 45.8308 44.8909 45.4509 44.8909C45.071 44.8909 44.6967 44.7997 44.3593 44.6251C40.553 43.1876 35.1676 36.7626 33.7947 35.5772C33.9613 35.4647 34.1211 35.3397 34.2738 35.2022C34.7508 34.7251 35.1883 34.2103 35.5822 33.6626C35.978 33.0987 36.3183 32.5029 36.603 31.8751C36.9988 31.0043 37.3037 30.1029 37.5176 29.1709C37.7011 28.2321 37.7918 27.2775 37.7884 26.3209C37.7968 25.5156 37.7059 24.7123 37.5176 23.9293C37.302 23.2209 37.0446 22.5259 36.7468 21.848C36.5593 21.473 36.3301 21.1397 36.1218 20.7876C36.7259 20.2876 37.2676 19.7272 37.8301 19.2272C37.8301 19.2272 46.1488 11.1793 46.8155 10.3876C47.5947 9.40428 48.2113 8.30219 48.6447 7.12303C48.8512 6.54348 48.9136 5.92239 48.8265 5.31335C48.7394 4.7043 48.5054 4.1256 48.1447 3.62719C47.7568 3.1378 47.2393 2.76719 46.651 2.55761C46.0628 2.34802 45.4275 2.30789 44.8176 2.44178C43.6651 2.69846 42.5624 3.1418 41.553 3.75428C40.5808 4.25567 39.6655 4.84455 38.8072 5.52094C38.1197 5.91678 38.5988 7.12303 40.0968 6.58344C40.8469 6.1428 41.6331 5.76646 42.4468 5.45844C43.3009 5.05844 44.2134 4.80011 45.1509 4.68761C45.3332 4.66234 45.519 4.68787 45.6877 4.76139C45.8564 4.8349 46.0016 4.95356 46.1072 5.10428C46.1902 5.27647 46.2334 5.46518 46.2334 5.65636C46.2334 5.84754 46.1902 6.03625 46.1072 6.20844C45.7447 7.10428 45.253 7.94594 44.6509 8.70428C44.1301 9.37094 36.4968 17.8355 36.4968 17.8355C36.0384 18.3147 35.603 18.8334 35.1468 19.3314C33.5918 17.3659 31.4167 15.9854 28.9762 15.4152C26.5358 14.845 23.9741 15.1188 21.7093 16.1918C20.3384 16.7939 19.1051 17.6709 18.0905 18.7709C16.044 17.491 14.1823 15.937 12.5572 14.1522C11.0958 12.7263 9.86133 11.0851 8.89676 9.28553C8.64676 8.82719 8.39676 8.36886 8.10509 7.95428L7.14884 5.87511L6.81551 4.64594C6.77369 4.38441 6.77369 4.11789 6.81551 3.85636V3.68969C7.08511 3.59437 7.37924 3.59437 7.64884 3.68969C8.87115 3.98456 10.042 4.46216 11.1218 5.10636L12.1218 5.75011C13.0155 6.33344 14.2009 5.25011 13.4093 4.58344L12.0988 3.54594C10.6386 2.36214 8.92225 1.53536 7.08634 1.13136C6.70282 1.10156 6.31746 1.1571 5.95796 1.29399C5.59847 1.43087 5.27376 1.6457 5.00718 1.92303C4.69523 2.31864 4.46621 2.77306 4.33377 3.25914C4.20133 3.74523 4.16819 4.25302 4.23634 4.75219L4.63218 6.62303L5.69468 9.26469C6.13009 10.0147 10.0822 15.0897 10.8093 15.7751C12.6741 17.5114 14.7747 18.9758 17.0488 20.1251C16.4597 20.9512 15.9584 21.8366 15.553 22.7668C15.2122 23.5687 14.9607 24.4057 14.803 25.2626C14.6572 26.1439 14.6572 27.0439 14.803 27.9251C14.8133 28.0184 14.8421 28.1087 14.8876 28.1907C14.9331 28.2728 14.9945 28.345 15.0681 28.4032C15.1418 28.4613 15.2263 28.5043 15.3167 28.5295C15.4071 28.5547 15.5016 28.5617 15.5947 28.5501C15.7846 28.5291 15.9586 28.4343 16.0794 28.2863C16.2002 28.1382 16.258 27.9487 16.2405 27.7584C16.1705 27.0259 16.2261 26.2868 16.4051 25.573C16.5856 24.8564 16.8356 24.1633 17.1551 23.4939C17.712 22.2962 18.4553 21.1943 19.3572 20.2293C20.246 19.3326 21.3068 18.6247 22.4759 18.148C24.6601 17.2928 27.0901 17.3129 29.2598 18.2043C31.4295 19.0957 33.1717 20.7897 34.1238 22.9334C34.3655 23.5098 34.5738 24.0987 34.7488 24.7001C34.9009 25.2626 34.9843 25.8439 34.9988 26.4272C35.0132 27.9661 34.7229 29.4926 34.1447 30.9189C33.9447 31.398 33.7016 31.8564 33.4155 32.2939C33.1254 32.7353 32.7993 33.152 32.4405 33.5397C32.0995 33.9111 31.7147 34.2399 31.2947 34.5189C30.8572 34.8078 30.3995 35.064 29.9218 35.2876C28.6913 35.8504 27.3575 36.1521 26.0047 36.1736C24.6518 36.1951 23.3091 35.936 22.0613 35.4126C20.7988 34.8691 19.668 34.0604 18.7456 33.0413C17.8233 32.0222 17.1309 30.8166 16.7155 29.5064C16.6492 29.2992 16.5033 29.1268 16.3099 29.0272C16.1165 28.9275 15.8915 28.9088 15.6843 28.9751C15.4771 29.0414 15.3047 29.1873 15.2051 29.3807C15.1054 29.5741 15.0867 29.7992 15.153 30.0064C15.6243 31.6171 16.4501 33.102 17.5697 34.3522C16.7363 34.998 15.8613 35.6001 14.9676 36.1814L5.50301 42.4209C4.99884 42.7855 4.42593 43.0459 3.81968 43.1918C3.42384 43.2959 3.11134 43.3376 2.94468 43.1918C2.62926 42.7435 2.48174 42.1984 2.52801 41.6522C2.62801 40.3397 2.96551 39.0564 3.52801 37.8668C3.80023 37.2084 4.14746 36.5911 4.56968 36.0147C5.25509 35.3084 4.21551 34.3314 3.54884 34.6209C2.87552 35.3312 2.30155 36.1294 1.84259 36.9939C0.99922 38.333 0.400997 39.8117 0.0759278 41.3605C-0.132102 42.4893 0.0909284 43.655 0.700928 44.6272C1.09313 45.1681 1.6444 45.573 2.27782 45.7855C2.91124 45.9981 3.5952 46.0075 4.23426 45.8126C4.97176 45.6689 5.67593 45.3959 6.31551 45.0001C7.35509 44.398 11.203 41.0689 15.9447 37.6793C16.8655 37.0223 17.7461 36.3154 18.5863 35.5584V35.4543C19.3717 36.1438 20.2462 36.7247 21.1863 37.1814C22.6873 37.8862 24.3181 38.2724 25.9758 38.3154C27.6335 38.3584 29.2821 38.0574 30.8176 37.4314C31.3843 37.1883 31.9322 36.9105 32.4613 36.598C33.3551 37.5355 35.8926 40.5501 39.1988 44.4397C40.3188 45.6093 41.6822 46.5183 43.1926 47.1022C43.9374 47.4609 44.7606 47.6261 45.5861 47.5824C46.4116 47.5387 47.2128 47.2876 47.9155 46.8522C48.5911 46.3966 49.1376 45.7742 49.5019 45.0452C49.8662 44.3163 50.0359 43.5056 49.9947 42.6918C49.925 41.5699 49.6496 40.4703 49.1822 39.448" fill="#00D8BD"/>
<path fill-rule="evenodd" clip-rule="evenodd" d="M46.772 35.4108C49.0761 29.7907 49.3261 23.5385 47.4783 17.7524C47.0427 16.2512 46.3382 14.8416 45.3991 13.592C44.2533 12.9253 43.0887 14.092 43.6491 15.3795C44.3262 16.317 44.8345 17.367 45.1491 18.4795C45.8929 20.6733 46.3075 22.9649 46.3762 25.2816H43.2762C42.9396 25.3306 42.6064 25.4002 42.2783 25.4899C41.445 25.6774 40.7179 25.9899 39.8866 26.1962C39.7183 26.2264 39.5659 26.3148 39.4561 26.446C39.3463 26.5772 39.2862 26.7428 39.2862 26.9139C39.2862 27.0849 39.3463 27.2506 39.4561 27.3818C39.5659 27.513 39.7183 27.6014 39.8866 27.6316C40.7477 27.8649 41.6213 28.0177 42.5075 28.0899C42.8825 28.1316 43.2568 28.1316 43.6304 28.0899C44.0054 28.0371 44.3734 27.9538 44.7345 27.8399C45.2741 27.6524 45.7929 27.4024 46.2929 27.1733C46.2338 30.4366 45.3769 33.636 43.797 36.492C43.323 37.2568 42.7946 37.9864 42.2158 38.6753C41.6713 39.2115 41.1929 39.801 40.7804 40.4441C40.3637 41.1316 41.8637 41.5899 42.1137 41.4024C44.0202 39.7073 45.5992 37.6764 46.772 35.4108ZM6.79287 33.9337C6.2597 32.5791 5.82183 31.1889 5.48246 29.7733C5.23246 28.7337 5.06579 27.6941 4.91996 26.6337C5.24218 26.8337 5.57551 27.0142 5.91996 27.1753C6.71371 27.4795 7.54704 27.6691 8.39496 27.7358C9.3894 27.7635 10.3811 27.7288 11.37 27.6316C11.4765 27.6412 11.5839 27.6297 11.686 27.5977C11.7882 27.5658 11.883 27.5141 11.9651 27.4455C12.0472 27.3769 12.115 27.2928 12.1647 27.198C12.2143 27.1032 12.2448 26.9996 12.2543 26.8931C12.2639 26.7865 12.2524 26.6791 12.2205 26.577C12.1885 26.4749 12.1368 26.38 12.0682 26.2979C11.9996 26.2158 11.9156 26.148 11.8208 26.0983C11.726 26.0487 11.6224 26.0183 11.5158 26.0087C10.5991 25.7795 9.72621 25.467 8.81162 25.1962L7.70746 25.0087C7.32376 24.925 6.93564 24.8631 6.54496 24.8233C5.91996 24.8233 5.33662 24.8233 4.75537 24.6774C4.74483 20.9209 5.97277 17.2657 8.24912 14.2774C8.62412 13.4441 7.35537 12.1983 6.60746 12.8003C3.59259 16.4738 2.10329 21.1647 2.44704 25.9045C2.65537 27.4253 3.07204 28.9003 3.38454 30.3983C3.98932 33.6837 5.51858 36.7285 7.79287 39.1753C9.06162 40.0087 9.60121 38.9045 9.24912 38.1753C8.26632 36.863 7.44187 35.4393 6.79287 33.9337Z" fill="#00D8BD"/>
</svg>
