<svg width="52" height="35" viewBox="0 0 52 35" fill="none" xmlns="http://www.w3.org/2000/svg">
<path d="M11.1468 11.5779H51.3606V9.87458C51.3606 6.10308 49.4386 4.19818 45.6108 4.19818H16.8967C13.0697 4.19818 11.1461 6.10308 11.1461 9.87537L11.1468 11.5779ZM11.1468 29.3416C11.1468 33.1139 13.0689 35 16.8967 35H45.6108C49.4378 35 51.3614 33.1139 51.3614 29.3416V15.7354H11.1453L11.1468 29.3416ZM17.2631 24.8731V21.4852C17.2631 20.4601 17.9773 19.7272 19.0579 19.7272H23.5443C24.6249 19.7272 25.339 20.4601 25.339 21.4852V24.8731C25.339 25.917 24.6249 26.6311 23.5443 26.6311H19.0571C17.9765 26.6311 17.2631 25.917 17.2631 24.8731Z" fill="#00D8BD"/>
<path d="M8.14458 2.50854C6.23133 2.19927 4.20237 2.67288 2.58182 3.99764C-0.425348 6.45592 -0.870206 10.8855 1.58807 13.8926L2.94917 12.78C1.10459 10.5235 1.43804 7.20331 3.69448 5.35873C4.9386 4.3417 6.50308 4.00298 7.96756 4.27109L7.73388 6.59796L11.3642 3.63029L8.39651 0L8.14458 2.50854ZM10.3704 13.5253C9.1263 14.5423 7.56182 14.8811 6.09734 14.6129L6.33102 12.2861L2.70073 15.2537L5.66839 18.884L5.92032 16.3755C7.83357 16.6848 9.86465 16.2094 11.4831 14.8864C14.4902 12.4281 14.9351 7.99856 12.4768 4.99139L11.1157 6.10405C12.9603 8.36049 12.6269 11.6807 10.3704 13.5253Z" fill="#00D8BD"/>
</svg>
