<svg width="60" height="60" viewBox="0 0 60 60" fill="none" xmlns="http://www.w3.org/2000/svg">
<path d="M29.7115 4.61549C29.185 4.69108 28.7008 4.94624 28.3408 5.33779L13.1238 20.7693H2.30769C0.923077 20.7693 0 21.6924 0 23.077V27.6924C0 29.077 0.923077 30.0001 2.30769 30.0001H2.52462L8.79692 51.4916C9.02769 52.4147 9.95077 53.077 11.1046 53.077H49.1815C50.1046 53.077 51.0277 52.4124 51.4892 51.4893L57.6923 30.0001C59.0769 30.0001 60 29.077 60 27.6924V23.077C60 21.6924 59.0769 20.7693 57.6923 20.7693H47.0908L31.6615 5.26395C31.4087 5.01256 31.101 4.82319 30.7627 4.71068C30.4244 4.59817 30.0646 4.56559 29.7115 4.61549ZM30 10.2416L40.6015 20.7693H19.6154L30 10.2416ZM40.53 27.187C40.9915 27.187 41.4069 27.3463 41.7531 27.6924L43.4146 29.2801C44.1069 29.9724 44.1069 31.1816 43.4146 31.8739L29.5685 45.7201C28.8762 46.4124 27.6646 46.4124 26.97 45.7201L19.1838 37.8601C18.4915 37.1678 18.4915 36.0301 19.1838 35.3378L20.7692 33.6763C21.4615 32.9839 22.6015 32.9839 23.2938 33.6763L28.4146 38.7993L39.2308 27.6924C39.5812 27.3606 40.0475 27.1792 40.53 27.187Z" fill="#00D8BD"/>
</svg>
