<svg width="50" height="50" viewBox="0 0 50 50" fill="none" xmlns="http://www.w3.org/2000/svg">
<path d="M45.447 9.66901C45.2601 9.45484 45.0308 9.28172 44.7736 9.16058C44.5164 9.03944 44.237 8.97291 43.9528 8.96517C39.5393 8.84978 33.9547 4.13055 30.2624 2.27863C27.9816 1.13824 26.4759 0.38632 25.3451 0.188243C25.1155 0.154068 24.8821 0.154716 24.6528 0.190166C23.522 0.388243 22.0163 1.14017 19.7374 2.28055C16.0451 4.13055 10.4605 8.84978 6.04702 8.96517C5.76273 8.97379 5.48325 9.04071 5.22588 9.16179C4.96852 9.28286 4.73877 9.4555 4.55087 9.66901C4.16193 10.11 3.96106 10.6857 3.99125 11.2729C4.93933 30.5479 11.8528 42.4767 23.9836 49.4094C24.2989 49.5882 24.6489 49.6805 24.997 49.6805C25.3451 49.6805 25.6951 49.5882 26.0124 49.4094C38.1432 42.4767 45.0547 30.5479 46.0047 11.2729C46.0375 10.6856 45.8371 10.1092 45.447 9.66901ZM35.8009 17.2498L25.5643 32.3556C25.197 32.8979 24.6201 33.2575 24.0489 33.2575C23.4778 33.2575 22.8393 32.944 22.4374 32.5421L15.222 25.3248C14.9864 25.0883 14.8542 24.7682 14.8542 24.4344C14.8542 24.1006 14.9864 23.7805 15.222 23.544L17.0047 21.7575C17.2421 21.5238 17.5619 21.3928 17.8951 21.3928C18.2283 21.3928 18.5481 21.5238 18.7855 21.7575L23.4778 26.4498L31.6297 14.4171C31.8183 14.1417 32.1082 13.9522 32.4361 13.8899C32.764 13.8275 33.1032 13.8975 33.3797 14.0844L35.4663 15.4998C35.7419 15.6881 35.9318 15.9779 35.9945 16.3058C36.0572 16.6337 35.9876 16.9731 35.8009 17.2498Z" fill="#00D8BD"/>
</svg>
