<svg width="74" height="32" viewBox="0 0 74 32" fill="none" xmlns="http://www.w3.org/2000/svg">
<path d="M11.7887 28C8.55374 28 5.53817 27.0591 3 25.4356C5.15499 25.5751 8.95807 25.2411 11.3236 22.9848C7.76508 22.8215 6.16026 20.0923 5.95094 18.926C6.25329 19.0426 7.6953 19.1826 8.50934 18.856C4.4159 17.8296 3.78793 14.2373 3.92748 13.141C4.695 13.6775 5.99745 13.8641 6.50913 13.8174C2.69479 11.0882 4.06703 6.98276 4.74151 6.09635C7.47882 9.88867 11.5812 12.0186 16.6564 12.137C16.5607 11.7174 16.5102 11.2804 16.5102 10.8316C16.5102 7.61092 19.1134 5 22.3247 5C24.0025 5 25.5144 5.71275 26.5757 6.85284C27.6969 6.59011 29.3843 5.97507 30.2092 5.4432C29.7934 6.93611 28.4989 8.18149 27.7159 8.64308C27.7095 8.62731 27.7224 8.65878 27.7159 8.64308C28.4037 8.53904 30.2648 8.18137 31 7.68256C30.6364 8.52125 29.264 9.91573 28.1377 10.6964C28.3473 19.9381 21.2765 28 11.7887 28Z" fill="#47ACDF"/>
<path d="M66 2H50C46.6863 2 44 4.68629 44 8V24C44 27.3137 46.6863 30 50 30H66C69.3137 30 72 27.3137 72 24V8C72 4.68629 69.3137 2 66 2Z" fill="url(#paint0_radial_3180_45481)"/>
<path d="M66 2H50C46.6863 2 44 4.68629 44 8V24C44 27.3137 46.6863 30 50 30H66C69.3137 30 72 27.3137 72 24V8C72 4.68629 69.3137 2 66 2Z" fill="url(#paint1_radial_3180_45481)"/>
<path d="M66 2H50C46.6863 2 44 4.68629 44 8V24C44 27.3137 46.6863 30 50 30H66C69.3137 30 72 27.3137 72 24V8C72 4.68629 69.3137 2 66 2Z" fill="url(#paint2_radial_3180_45481)"/>
<path d="M65 10.5C65 11.3284 64.3284 12 63.5 12C62.6716 12 62 11.3284 62 10.5C62 9.67157 62.6716 9 63.5 9C64.3284 9 65 9.67157 65 10.5Z" fill="white"/>
<path fill-rule="evenodd" clip-rule="evenodd" d="M58 21C60.7614 21 63 18.7614 63 16C63 13.2386 60.7614 11 58 11C55.2386 11 53 13.2386 53 16C53 18.7614 55.2386 21 58 21ZM58 19C59.6569 19 61 17.6569 61 16C61 14.3431 59.6569 13 58 13C56.3431 13 55 14.3431 55 16C55 17.6569 56.3431 19 58 19Z" fill="white"/>
<path fill-rule="evenodd" clip-rule="evenodd" d="M48 15.6C48 12.2397 48 10.5595 48.654 9.27606C49.2292 8.14708 50.1471 7.2292 51.2761 6.65396C52.5595 6 54.2397 6 57.6 6H58.4C61.7603 6 63.4405 6 64.7239 6.65396C65.8529 7.2292 66.7708 8.14708 67.346 9.27606C68 10.5595 68 12.2397 68 15.6V16.4C68 19.7603 68 21.4405 67.346 22.7239C66.7708 23.8529 65.8529 24.7708 64.7239 25.346C63.4405 26 61.7603 26 58.4 26H57.6C54.2397 26 52.5595 26 51.2761 25.346C50.1471 24.7708 49.2292 23.8529 48.654 22.7239C48 21.4405 48 19.7603 48 16.4V15.6ZM57.6 8H58.4C60.1132 8 61.2777 8.00156 62.1779 8.0751C63.0548 8.14674 63.5032 8.27659 63.816 8.43597C64.5686 8.81947 65.1805 9.43139 65.564 10.184C65.7234 10.4968 65.8533 10.9452 65.9249 11.8221C65.9984 12.7223 66 13.8868 66 15.6V16.4C66 18.1132 65.9984 19.2777 65.9249 20.1779C65.8533 21.0548 65.7234 21.5032 65.564 21.816C65.1805 22.5686 64.5686 23.1805 63.816 23.564C63.5032 23.7234 63.0548 23.8533 62.1779 23.9249C61.2777 23.9984 60.1132 24 58.4 24H57.6C55.8868 24 54.7223 23.9984 53.8221 23.9249C52.9452 23.8533 52.4968 23.7234 52.184 23.564C51.4314 23.1805 50.8195 22.5686 50.436 21.816C50.2766 21.5032 50.1467 21.0548 50.0751 20.1779C50.0016 19.2777 50 18.1132 50 16.4V15.6C50 13.8868 50.0016 12.7223 50.0751 11.8221C50.1467 10.9452 50.2766 10.4968 50.436 10.184C50.8195 9.43139 51.4314 8.81947 52.184 8.43597C52.4968 8.27659 52.9452 8.14674 53.8221 8.0751C54.7223 8.00156 55.8868 8 57.6 8Z" fill="white"/>
<defs>
<radialGradient id="paint0_radial_3180_45481" cx="0" cy="0" r="1" gradientUnits="userSpaceOnUse" gradientTransform="translate(54 23) rotate(-55.3758) scale(25.5196)">
<stop stop-color="#B13589"/>
<stop offset="0.79309" stop-color="#C62F94"/>
<stop offset="1" stop-color="#8A3AC8"/>
</radialGradient>
<radialGradient id="paint1_radial_3180_45481" cx="0" cy="0" r="1" gradientUnits="userSpaceOnUse" gradientTransform="translate(53 31) rotate(-65.1363) scale(22.5942)">
<stop stop-color="#E0E8B7"/>
<stop offset="0.444662" stop-color="#FB8A2E"/>
<stop offset="0.71474" stop-color="#E2425C"/>
<stop offset="1" stop-color="#E2425C" stop-opacity="0"/>
</radialGradient>
<radialGradient id="paint2_radial_3180_45481" cx="0" cy="0" r="1" gradientUnits="userSpaceOnUse" gradientTransform="translate(42.5 3) rotate(-8.1301) scale(38.8909 8.31836)">
<stop offset="0.156701" stop-color="#406ADC"/>
<stop offset="0.467799" stop-color="#6A45BE"/>
<stop offset="1" stop-color="#6A45BE" stop-opacity="0"/>
</radialGradient>
</defs>
</svg>
