<svg width="70" height="70" viewBox="0 0 70 70" fill="none" xmlns="http://www.w3.org/2000/svg">
<path d="M34.6991 2.12744L23.7753 13.6269L24.0897 21.67L31.0077 26.6192L35.369 51.5021L36.8456 47.8243L38.4589 15.6407L41.0155 15.7774L39.7714 40.5235L43.6405 30.8438L44.7616 16.0782L44.8847 13.6269L34.6991 2.12744ZM53.703 9.04131L47.3319 15.9825L46.7987 22.9688L48.2479 19.3868L52.4042 17.5138C52.8417 14.6974 53.2655 11.8673 53.703 9.04131ZM61.9472 16.0372L50.2304 21.2872L36.203 56.2735L38.1991 67.6622H39.2655L59.4452 27.5899L61.7284 28.7384L42.1229 67.6622H45.4589L65.5019 27.7677L61.9472 16.0372ZM15.4354 18.6212L8.0376 32.17L17.4862 67.6622H30.2831L23.2968 30.0919L25.7987 29.6271L32.8808 67.6622H35.6015L28.6698 28.0958L15.4354 18.6212ZM64.4218 54.2228L55.4257 53.5118L48.6171 67.0743L58.1601 62.0567L64.4218 54.2228ZM4.81787 50.3946L10.6243 67.7169H14.8612L11.0194 53.3067L4.81787 50.3946Z" fill="#00D8BD"/>
</svg>
